<?xml version="1.0" encoding="UTF-8"?>
<svg version="1.1" xmlns="http://www.w3.org/2000/svg" width="103" height="101">
<path d="M0 0 C2.96378892 1.20671072 5.64309614 2.7797425 8.375 4.4375 C9.09816406 4.85837891 9.82132813 5.27925781 10.56640625 5.71289062 C15.75496032 8.75496032 15.75496032 8.75496032 17 10 C18.49574589 17.38898472 19.34331364 25.74865369 17 33 C12.5031711 38.48262022 4.88209715 42.41847678 -2 44 C-9.13164905 43.11882199 -16.09456829 39.76364651 -21.47070312 35.02832031 C-24.57603394 30.9096919 -24.5480066 26.24904936 -24.5625 21.25 C-24.57643799 20.24372559 -24.59037598 19.23745117 -24.60473633 18.20068359 C-24.36873543 13.95972278 -24.11969693 11.10125551 -21.01367188 8.04638672 C-18.73378247 6.51572387 -16.44759265 5.24000119 -14 4 C-12.79164447 3.20836721 -11.58330913 2.4167036 -10.375 1.625 C-6.387077 -0.29511108 -4.39612727 -0.43691019 0 0 Z " fill="#0C78BC" transform="translate(74,0)"/>
<path d="M0 0 C1.05960938 0.33773437 2.11921875 0.67546875 3.2109375 1.0234375 C7.00090124 2.64236028 9.26782191 3.87317396 12 7 C13.54098889 13.49853063 12.72594619 20.42460278 12 27 C9.42474285 28.53617083 6.841326 30.05388201 4.25 31.5625 C3.52039063 32.00013672 2.79078125 32.43777344 2.0390625 32.88867188 C0.97558594 33.50258789 0.97558594 33.50258789 -0.109375 34.12890625 C-0.75874023 34.51119385 -1.40810547 34.89348145 -2.07714844 35.28735352 C-4.49872618 36.1848377 -5.60358021 35.88371555 -8 35 C-10.08961177 33.88261913 -12.15056465 32.71074842 -14.1875 31.5 C-15.25355469 30.8709375 -16.31960937 30.241875 -17.41796875 29.59375 C-20 28 -20 28 -21 27 C-22.24947104 20.57910713 -22.85945966 13.32527491 -21 7 C-16.07161321 0.36254773 -7.64663758 -3.53554211 0 0 Z " fill="#0C79BC" transform="translate(21,40)"/>
<path d="M0 0 C1.05960938 0.33773437 2.11921875 0.67546875 3.2109375 1.0234375 C6.97918006 2.63308185 9.24948701 3.92716127 12 7 C14.05175971 13.38752694 13.82186194 20.57793666 12 27 C9.31833751 30.96956618 6.61442838 32.02975724 2 33 C-4.6436123 34.01863729 -11.13786501 34.00023275 -17.375 31.25 C-20.53484554 28.75696597 -21.34031156 26.2938908 -22.0703125 22.46484375 C-22.73540353 16.62767894 -23.35431718 10.05541301 -19.58496094 5.16357422 C-13.71358573 -0.01444763 -7.48652702 -3.46151249 0 0 Z " fill="#0B78BC" transform="translate(76,68)"/>
<path d="M0 0 C0.84304687 0.32355469 1.68609375 0.64710937 2.5546875 0.98046875 C5.30206751 2.40966138 7.02068386 3.59624452 9 6 C10.51950309 11.31528139 10.6054267 15.70036562 9 21 C5.49441364 24.60433527 1.82982892 26.63683661 -3 28 C-7.24312746 27.74819824 -10.24115997 26.58476911 -13.875 24.4375 C-14.65617187 23.98246094 -15.43734375 23.52742188 -16.2421875 23.05859375 C-16.82226562 22.70925781 -17.40234375 22.35992187 -18 22 C-19.42404944 10.27796342 -19.42404944 10.27796342 -18 5 C-12.81288262 -0.81286487 -7.25474917 -3.19833028 0 0 Z " fill="#127CBD" transform="translate(89,42)"/>
<path d="M0 0 C0.97453125 0.54527344 1.9490625 1.09054688 2.953125 1.65234375 C3.93796875 2.20019531 4.9228125 2.74804688 5.9375 3.3125 C6.68515625 3.73402344 7.4328125 4.15554687 8.203125 4.58984375 C9.63146786 15.60659932 9.63146786 15.60659932 8.203125 20.58984375 C4.7495896 24.26496749 1.04555948 26.23493423 -3.796875 27.58984375 C-6.359375 27.37109375 -6.359375 27.37109375 -8.796875 26.58984375 C-9.67988281 26.31011719 -10.56289063 26.03039062 -11.47265625 25.7421875 C-14.56235903 24.31863555 -16.51171626 23.13458291 -18.796875 20.58984375 C-20.44364344 14.85933085 -20.49392415 10.31299572 -18.796875 4.58984375 C-12.98725936 -1.36103913 -7.42703208 -3.74463489 0 0 Z " fill="#127CBD" transform="translate(37.796875,16.41015625)"/>
<path d="M0 0 C1.73744553 0.96601972 3.44188544 1.99087032 5.140625 3.0234375 C5.6812698 7.14835709 5.91146549 10.91923272 5.140625 15.0234375 C2.63036661 18.04862068 -0.06653955 19.95010728 -3.859375 21.0234375 C-6.453125 20.2578125 -6.453125 20.2578125 -8.859375 19.0234375 C-9.9525 18.4871875 -11.045625 17.9509375 -12.171875 17.3984375 C-13.05875 16.9446875 -13.945625 16.4909375 -14.859375 16.0234375 C-16.06989883 4.54027393 -16.06989883 4.54027393 -13.25390625 1.01171875 C-8.40024 -2.16638542 -5.18652173 -2.72401351 0 0 Z " fill="#137CBE" transform="translate(46.859375,73.9765625)"/>
</svg>
